<svg width="17" height="12" viewBox="0 0 17 12" fill="none" xmlns="http://www.w3.org/2000/svg">
<path d="M0.000191201 11.4593V6.56012C-0.00433969 6.21386 0.0717138 5.87138 0.222191 5.56043C0.368945 5.26223 0.566662 4.99269 0.806191 4.76431V2.47832C0.800456 2.15568 0.860055 1.83527 0.981308 1.53686C1.10256 1.23845 1.2829 0.968362 1.51119 0.743276C1.73342 0.512046 2.00007 0.329366 2.29469 0.206553C2.58931 0.0837406 2.90565 0.023383 3.22419 0.0291913H6.44819C6.7458 0.0266813 7.04081 0.0856336 7.31519 0.202411C7.58784 0.320562 7.83977 0.482696 8.06119 0.682507C8.28261 0.482696 8.53454 0.320562 8.80719 0.202411C9.08158 0.0856336 9.37658 0.0266813 9.67419 0.0291913H12.9002C13.2187 0.023383 13.5351 0.0837406 13.8297 0.206553C14.1243 0.329366 14.391 0.512046 14.6132 0.743276C14.8415 0.968362 15.0218 1.23845 15.1431 1.53686C15.2643 1.83527 15.3239 2.15568 15.3182 2.47832V4.76431C15.5577 4.99269 15.7554 5.26223 15.9022 5.56043C16.0527 5.87138 16.1287 6.21386 16.1242 6.56012V11.4593H14.5102V9.82658H1.61019V11.4593H0.000191201ZM8.86719 4.11105H13.7002V2.47832C13.7027 2.37051 13.6835 2.26327 13.6436 2.16329C13.6037 2.0633 13.544 1.97264 13.4682 1.8969C13.3934 1.82013 13.3039 1.75971 13.2052 1.71929C13.1065 1.67888 13.0006 1.65934 12.8942 1.66192H9.67319C9.56674 1.65934 9.46091 1.67888 9.36219 1.71929C9.26347 1.75971 9.17397 1.82013 9.09919 1.8969C9.02339 1.97264 8.96371 2.0633 8.92381 2.16329C8.88391 2.26327 8.86463 2.37051 8.86719 2.47832V4.11105ZM2.41819 4.11105H7.25519V2.47832C7.25774 2.37051 7.23848 2.26327 7.19858 2.16329C7.15868 2.0633 7.09899 1.97264 7.02319 1.8969C6.94842 1.82013 6.85891 1.75971 6.76019 1.71929C6.66148 1.67888 6.55563 1.65934 6.44919 1.66192H3.22419C3.11774 1.65934 3.0119 1.67888 2.91319 1.71929C2.81447 1.75971 2.72497 1.82013 2.65019 1.8969C2.57439 1.97264 2.5147 2.0633 2.4748 2.16329C2.4349 2.26327 2.41564 2.37051 2.41819 2.47832V4.11105ZM1.61219 8.19384H14.5122V6.56111C14.5147 6.4533 14.4955 6.34612 14.4556 6.24614C14.4157 6.14615 14.356 6.05549 14.2802 5.97975C14.2054 5.90298 14.1159 5.8425 14.0172 5.80208C13.9185 5.76167 13.8126 5.74219 13.7062 5.74478H2.41819C2.31175 5.74219 2.2059 5.76167 2.10719 5.80208C2.00847 5.8425 1.91897 5.90298 1.84419 5.97975C1.76839 6.05549 1.7087 6.14615 1.6688 6.24614C1.6289 6.34612 1.60964 6.4533 1.61219 6.56111V8.19384Z" fill="#5F6368"/>
</svg>
