<svg width="88" height="17" viewBox="0 0 88 17" fill="none" xmlns="http://www.w3.org/2000/svg">
<path d="M72.8972 15.8442C72.8745 15.9511 72.8818 16.0623 72.9182 16.1652C72.9546 16.2682 73.0188 16.3587 73.1034 16.4266C73.188 16.4946 73.2897 16.5371 73.3969 16.5496C73.5042 16.562 73.6127 16.5438 73.7103 16.497L78.5026 14.0064L83.295 16.497C83.3926 16.5438 83.5011 16.562 83.6084 16.5496C83.7156 16.5371 83.8173 16.4946 83.9019 16.4266C83.9865 16.3587 84.0507 16.2682 84.0871 16.1652C84.1235 16.0623 84.1308 15.9511 84.108 15.8442L83.1909 10.622L87.0314 6.9162C87.1125 6.83818 87.1707 6.73897 87.1996 6.62953C87.2285 6.52009 87.227 6.40468 87.1952 6.29607C87.1634 6.18746 87.1025 6.08988 87.0194 6.0141C86.9362 5.93833 86.834 5.88733 86.724 5.86673L81.383 5.09846L79.0017 0.321471C78.956 0.225176 78.8843 0.143916 78.795 0.0870444C78.7057 0.0301724 78.6024 0 78.4969 0C78.3914 0 78.288 0.0301724 78.1987 0.0870444C78.1094 0.143916 78.0377 0.225176 77.992 0.321471L75.6107 5.09846L70.2681 5.86673C70.1581 5.88733 70.0559 5.93833 69.9727 6.0141C69.8896 6.08988 69.8287 6.18746 69.7969 6.29607C69.7651 6.40468 69.7635 6.52009 69.7925 6.62953C69.8214 6.73897 69.8796 6.83818 69.9607 6.9162L73.8028 10.622L72.8972 15.8442ZM78.2448 12.7878L74.2341 14.8801L74.9827 10.5098C75.0006 10.4094 74.9939 10.306 74.963 10.2088C74.9322 10.1116 74.8782 10.0236 74.8059 9.95245L71.6364 6.89444L76.0519 6.2584C76.1433 6.24439 76.23 6.20813 76.3046 6.15275C76.3791 6.09736 76.4393 6.02449 76.4799 5.94038L78.496 1.90153L80.5138 5.94038C80.5544 6.02449 80.6146 6.09736 80.6891 6.15275C80.7637 6.20813 80.8504 6.24439 80.9418 6.2584L85.359 6.89444L82.1861 9.95245C82.1138 10.0236 82.0599 10.1116 82.029 10.2088C81.9982 10.306 81.9914 10.4094 82.0093 10.5098L82.7662 14.8801L78.7489 12.7878C78.671 12.747 78.5846 12.7258 78.4969 12.7258C78.4092 12.7258 78.3227 12.747 78.2448 12.7878Z" fill="#FFD433"/>
<path d="M58.1682 5.09846L60.5495 0.321471C60.5953 0.225176 60.6669 0.143916 60.7562 0.0870444C60.8455 0.0301724 60.9489 0 61.0544 0C61.1599 0 61.2632 0.0301724 61.3526 0.0870444C61.4419 0.143916 61.5135 0.225176 61.5592 0.321471L63.9405 5.09846L69.2815 5.86673C69.415 5.88743 69.5372 5.95424 69.6276 6.05583C69.718 6.15742 69.7708 6.28753 69.7773 6.4241C69.7795 6.45531 69.7795 6.48663 69.7773 6.51784C69.7671 6.66943 69.701 6.81161 69.5922 6.9162L65.7484 10.622L66.6523 15.8442C66.6751 15.9511 66.6678 16.0623 66.6314 16.1652C66.595 16.2682 66.5308 16.3587 66.4462 16.4266C66.3616 16.4946 66.2599 16.5371 66.1527 16.5496C66.0454 16.562 65.9369 16.5438 65.8393 16.497L61.0536 14.008L56.2612 16.4986C56.2093 16.5256 56.1535 16.5442 56.096 16.5539C56.0025 16.568 55.9071 16.559 55.8179 16.5278C55.7286 16.4966 55.6481 16.4439 55.5832 16.3744C55.5183 16.3049 55.4709 16.2206 55.4451 16.1285C55.4193 16.0365 55.4158 15.9395 55.4349 15.8459L56.3389 10.6236L52.5199 6.9162C52.4597 6.85918 52.4118 6.79023 52.3791 6.71363C52.3464 6.63703 52.3296 6.55442 52.3298 6.47097C52.3297 6.35289 52.3618 6.23707 52.4224 6.13621C52.4654 6.06359 52.5239 6.00168 52.5937 5.95504C52.6635 5.9084 52.7428 5.87822 52.8256 5.86673L58.1682 5.09846ZM61.0519 12.7192C61.1399 12.7192 61.2265 12.7404 61.3047 12.7812L65.3237 14.8734L64.5669 10.5098C64.549 10.4094 64.5557 10.306 64.5866 10.2088C64.6174 10.1116 64.6713 10.0236 64.7437 9.95245L67.9132 6.89444L63.496 6.2584C63.4052 6.24388 63.3192 6.2074 63.2452 6.15203C63.1713 6.09667 63.1116 6.02407 63.0713 5.94038L61.0536 1.90153L61.0519 12.7192Z" fill="#FFD433"/>
<path d="M38.8253 16.4986C38.7277 16.5455 38.6192 16.5637 38.5119 16.5512C38.4047 16.5388 38.303 16.4962 38.2184 16.4283C38.1338 16.3604 38.0696 16.2698 38.0332 16.1669C37.9968 16.064 37.9895 15.9528 38.0123 15.8459L38.9162 10.6236L35.0757 6.9162C34.9946 6.8383 34.9364 6.73921 34.9074 6.62989C34.8784 6.52056 34.8798 6.40525 34.9114 6.29668C34.943 6.1881 35.0037 6.09049 35.0866 6.01462C35.1695 5.93875 35.2716 5.88757 35.3814 5.86673L40.7224 5.09846L43.1054 0.321471C43.1511 0.225176 43.2227 0.143916 43.3121 0.0870444C43.4014 0.0301724 43.5047 0 43.6102 0C43.7157 0 43.8191 0.0301724 43.9084 0.0870444C43.9977 0.143916 44.0693 0.225176 44.1151 0.321471L46.4964 5.09846L51.8374 5.86673C51.9473 5.88733 52.0496 5.93833 52.1327 6.01411C52.2159 6.08988 52.2767 6.18746 52.3085 6.29607C52.3403 6.40468 52.3419 6.52009 52.313 6.62953C52.2841 6.73897 52.2258 6.83818 52.1447 6.9162L48.3042 10.622L49.2082 15.8442C49.2309 15.9511 49.2237 16.0623 49.1872 16.1652C49.1508 16.2682 49.0867 16.3587 49.0021 16.4266C48.9174 16.4946 48.8158 16.5371 48.7085 16.5496C48.6012 16.562 48.4927 16.5438 48.3951 16.497L43.6094 14.008L38.8253 16.4986Z" fill="#FFD433"/>
<path d="M21.3828 16.4986C21.2852 16.5455 21.1767 16.5637 21.0694 16.5512C20.9622 16.5388 20.8605 16.4962 20.7759 16.4283C20.6913 16.3604 20.6271 16.2698 20.5907 16.1669C20.5543 16.064 20.547 15.9528 20.5698 15.8459L21.4737 10.6236L17.6332 6.9162C17.5521 6.8383 17.4939 6.73921 17.4649 6.62989C17.4359 6.52056 17.4373 6.40525 17.4689 6.29668C17.5005 6.1881 17.5611 6.09049 17.6441 6.01462C17.727 5.93875 17.8291 5.88757 17.9389 5.86673L23.2799 5.09846L25.6629 0.321471C25.7086 0.225176 25.7802 0.143916 25.8696 0.0870444C25.9589 0.0301724 26.0622 0 26.1677 0C26.2732 0 26.3766 0.0301724 26.4659 0.0870444C26.5552 0.143916 26.6268 0.225176 26.6726 0.321471L29.0539 5.09846L34.3949 5.86673C34.5048 5.88733 34.6071 5.93833 34.6902 6.01411C34.7734 6.08988 34.8342 6.18746 34.866 6.29607C34.8978 6.40468 34.8994 6.52009 34.8705 6.62953C34.8416 6.73897 34.7833 6.83818 34.7022 6.9162L30.8617 10.622L31.7657 15.8442C31.7884 15.9511 31.7811 16.0623 31.7447 16.1652C31.7083 16.2682 31.6441 16.3587 31.5595 16.4266C31.4749 16.4946 31.3733 16.5371 31.266 16.5496C31.1587 16.562 31.0502 16.5438 30.9526 16.497L26.1669 14.008L21.3828 16.4986Z" fill="#FFD433"/>
<path d="M3.93871 16.4986C3.84115 16.5455 3.7326 16.5637 3.62534 16.5512C3.51808 16.5388 3.4164 16.4962 3.33179 16.4283C3.24719 16.3604 3.18305 16.2698 3.14662 16.1669C3.11019 16.064 3.10293 15.9528 3.12566 15.8459L4.0296 10.6236L0.189112 6.9162C0.108023 6.8383 0.0497645 6.73921 0.0207677 6.62989C-0.00822911 6.52056 -0.00683644 6.40525 0.024792 6.29668C0.0564204 6.1881 0.117054 6.09049 0.2 6.01462C0.282946 5.93875 0.384977 5.88757 0.49483 5.86673L5.83582 5.09846L8.21877 0.321471C8.2645 0.225176 8.33615 0.143916 8.42546 0.0870444C8.51477 0.0301724 8.61813 0 8.72362 0C8.82912 0 8.93248 0.0301724 9.02179 0.0870444C9.1111 0.143916 9.18275 0.225176 9.22847 0.321471L11.6098 5.09846L16.9508 5.86673C17.0608 5.88733 17.163 5.93833 17.2461 6.01411C17.3293 6.08988 17.3901 6.18746 17.4219 6.29607C17.4537 6.40468 17.4553 6.52009 17.4264 6.62953C17.3975 6.73897 17.3392 6.83818 17.2581 6.9162L13.4176 10.622L14.3216 15.8442C14.3443 15.9511 14.3371 16.0623 14.3006 16.1652C14.2642 16.2682 14.2001 16.3587 14.1155 16.4266C14.0309 16.4946 13.9292 16.5371 13.8219 16.5496C13.7147 16.562 13.6061 16.5438 13.5085 16.497L8.7228 14.008L3.93871 16.4986Z" fill="#FFD433"/>
</svg>
