<svg width="18" height="4" viewBox="0 0 18 4" fill="none" xmlns="http://www.w3.org/2000/svg">
<path fill-rule="evenodd" clip-rule="evenodd" d="M14.3994 2C14.3994 2.39561 14.505 2.78233 14.7029 3.11125C14.9007 3.44018 15.182 3.69652 15.511 3.84786C15.84 3.99921 16.202 4.03875 16.5513 3.96149C16.9005 3.88423 17.2213 3.69364 17.4731 3.41382C17.7248 3.13401 17.8962 2.77754 17.9655 2.38951C18.0349 2.00147 17.9991 1.5993 17.8627 1.23387C17.7263 0.868437 17.4954 0.556156 17.1992 0.336526C16.903 0.116895 16.5548 -0.000217424 16.1987 3.03033e-07C15.7214 0.000292126 15.2638 0.211135 14.9263 0.586176C14.5889 0.961217 14.3994 1.46976 14.3994 2Z" fill="#292C2D"/>
<path fill-rule="evenodd" clip-rule="evenodd" d="M7.19921 2C7.19921 2.39561 7.30482 2.78233 7.50268 3.11125C7.70055 3.44018 7.98177 3.69652 8.31079 3.84786C8.63981 3.99921 9.00184 4.03875 9.35109 3.96149C9.70034 3.88423 10.0211 3.69364 10.2729 3.41382C10.5246 3.13401 10.696 2.77754 10.7653 2.38951C10.8347 2.00147 10.7989 1.5993 10.6625 1.23387C10.5261 0.868437 10.2952 0.556156 9.99898 0.336526C9.70279 0.116895 9.35462 -0.000217424 8.99852 3.03033e-07C8.52122 0.000292126 8.06356 0.211135 7.72615 0.586176C7.38875 0.961217 7.19921 1.46976 7.19921 2Z" fill="#292C2D"/>
<path fill-rule="evenodd" clip-rule="evenodd" d="M-9.53674e-06 2C-9.29832e-06 2.39561 0.105602 2.78233 0.303465 3.11125C0.501328 3.44018 0.782554 3.69652 1.11157 3.84786C1.44059 3.99921 1.80262 4.03875 2.15187 3.96149C2.50112 3.88423 2.8219 3.69364 3.07364 3.41382C3.32538 3.13401 3.49676 2.77754 3.56611 2.38951C3.63547 2.00147 3.59967 1.5993 3.46326 1.23387C3.32685 0.868437 3.09595 0.556156 2.79976 0.336526C2.50357 0.116895 2.1554 -0.000217424 1.7993 3.03033e-07C1.322 0.000292126 0.864342 0.211135 0.526935 0.586176C0.189528 0.961217 -9.53674e-06 1.46976 -9.53674e-06 2Z" fill="#292C2D"/>
</svg>
