<svg width="24" height="24" viewBox="0 0 24 24" fill="none" xmlns="http://www.w3.org/2000/svg">
<path d="M18.08 12.42L11.9 18.61C11.0899 19.33 10.0352 19.7133 8.95176 19.6814C7.86834 19.6495 6.83804 19.2049 6.07161 18.4384C5.30518 17.672 4.86055 16.6417 4.82865 15.5583C4.79676 14.4749 5.18002 13.4202 5.90004 12.61L13.9 4.61C14.3777 4.1563 15.0113 3.90333 15.67 3.90333C16.3288 3.90333 16.9624 4.1563 17.44 4.61C17.9054 5.08159 18.1663 5.71747 18.1663 6.38C18.1663 7.04253 17.9054 7.67841 17.44 8.15L10.54 15.04C10.4718 15.1135 10.3896 15.1729 10.2984 15.2147C10.2072 15.2565 10.1086 15.28 10.0083 15.2837C9.90803 15.2874 9.808 15.2713 9.71392 15.2364C9.61985 15.2014 9.53358 15.1483 9.46004 15.08C9.3865 15.0117 9.32713 14.9296 9.28532 14.8384C9.24351 14.7471 9.22008 14.6486 9.21636 14.5483C9.21265 14.448 9.22872 14.348 9.26367 14.2539C9.29862 14.1598 9.35175 14.0735 9.42004 14L14.55 8.88C14.7383 8.6917 14.8441 8.4363 14.8441 8.17C14.8441 7.9037 14.7383 7.6483 14.55 7.46C14.3617 7.2717 14.1063 7.16591 13.84 7.16591C13.5737 7.16591 13.3183 7.2717 13.13 7.46L8.00004 12.6C7.74334 12.8547 7.5396 13.1577 7.40057 13.4915C7.26153 13.8253 7.18995 14.1834 7.18995 14.545C7.18995 14.9066 7.26153 15.2647 7.40057 15.5985C7.5396 15.9323 7.74334 16.2353 8.00004 16.49C8.52441 16.9895 9.22085 17.2681 9.94504 17.2681C10.6692 17.2681 11.3657 16.9895 11.89 16.49L18.78 9.59C19.5749 8.73695 20.0077 7.60867 19.9871 6.44286C19.9665 5.27706 19.4942 4.16475 18.6698 3.34027C17.8453 2.51579 16.733 2.04352 15.5672 2.02295C14.4014 2.00238 13.2731 2.43512 12.42 3.23L4.42004 11.23C3.34124 12.4248 2.76507 13.9899 2.81157 15.599C2.85808 17.2081 3.52367 18.7372 4.66968 19.8678C5.81568 20.9983 7.35371 21.6431 8.96332 21.6677C10.5729 21.6923 12.13 21.0949 13.31 20L19.5 13.82C19.5933 13.7268 19.6672 13.6161 19.7177 13.4942C19.7682 13.3724 19.7941 13.2419 19.7941 13.11C19.7941 12.9781 19.7682 12.8476 19.7177 12.7257C19.6672 12.6039 19.5933 12.4932 19.5 12.4C19.4068 12.3068 19.2961 12.2328 19.1743 12.1823C19.0525 12.1319 18.9219 12.1059 18.79 12.1059C18.6582 12.1059 18.5276 12.1319 18.4058 12.1823C18.284 12.2328 18.1733 12.3068 18.08 12.4V12.42Z" fill="#707070"/>
</svg>
