<svg width="30" height="30" viewBox="0 0 30 30" fill="none" xmlns="http://www.w3.org/2000/svg">
<circle cx="15" cy="15" r="15" fill="#2387C2" fill-opacity="0.46"/>
<path d="M19.7583 14.4083L15.5917 10.2417C15.5124 10.1658 15.419 10.1063 15.3167 10.0667C15.1138 9.98331 14.8862 9.98331 14.6833 10.0667C14.581 10.1063 14.4876 10.1658 14.4083 10.2417L10.2417 14.4083C10.164 14.486 10.1023 14.5783 10.0603 14.6798C10.0182 14.7813 9.99658 14.8901 9.99658 15C9.99658 15.2219 10.0847 15.4347 10.2417 15.5917C10.3986 15.7486 10.6114 15.8367 10.8333 15.8367C11.0552 15.8367 11.2681 15.7486 11.425 15.5917L14.1667 12.8417V19.1667C14.1667 19.3877 14.2545 19.5996 14.4107 19.7559C14.567 19.9122 14.779 20 15 20C15.221 20 15.433 19.9122 15.5892 19.7559C15.7455 19.5996 15.8333 19.3877 15.8333 19.1667V12.8417L18.575 15.5917C18.6525 15.6698 18.7446 15.7318 18.8462 15.7741C18.9477 15.8164 19.0566 15.8382 19.1667 15.8382C19.2767 15.8382 19.3856 15.8164 19.4871 15.7741C19.5887 15.7318 19.6809 15.6698 19.7583 15.5917C19.8364 15.5142 19.8984 15.422 19.9407 15.3205C19.983 15.2189 20.0048 15.11 20.0048 15C20.0048 14.89 19.983 14.7811 19.9407 14.6795C19.8984 14.578 19.8364 14.4858 19.7583 14.4083Z" fill="#FBFBFB"/>
</svg>
