<svg width="16" height="16" viewBox="0 0 16 16" fill="none" xmlns="http://www.w3.org/2000/svg">
<path d="M11.7426 10.3426C12.7109 9.02147 13.1447 7.38349 12.9573 5.75627C12.7699 4.12906 11.975 2.63259 10.7317 1.56621C9.48845 0.499827 7.88839 -0.0578422 6.25161 0.00475197C4.61483 0.0673462 3.06203 0.745588 1.90381 1.90381C0.745588 3.06203 0.0673462 4.61483 0.00475197 6.25161C-0.0578422 7.88839 0.499827 9.48845 1.56621 10.7317C2.63259 11.975 4.12906 12.7699 5.75627 12.9573C7.38349 13.1447 9.02147 12.7109 10.3426 11.7426C10.373 11.783 10.4064 11.8211 10.4426 11.8566L14.2936 15.7076C14.4822 15.8897 14.7348 15.9905 14.997 15.9883C15.2592 15.986 15.51 15.8808 15.6954 15.6954C15.8808 15.51 15.986 15.2592 15.9883 14.997C15.9905 14.7348 15.8897 14.4822 15.7076 14.2936L11.8566 10.4426C11.8211 10.4064 11.783 10.373 11.7426 10.3426ZM12.0006 6.49858C12.0006 7.58638 11.678 8.64975 11.0737 9.55422C10.4693 10.4587 9.61033 11.1636 8.60534 11.5799C7.60035 11.9962 6.49448 12.1051 5.42758 11.8929C4.36069 11.6807 3.38068 11.1569 2.61149 10.3877C1.8423 9.61848 1.31848 8.63847 1.10626 7.57158C0.894043 6.50468 1.00296 5.39882 1.41924 4.39382C1.83553 3.38883 2.54047 2.52985 3.44494 1.9255C4.34941 1.32115 5.41278 0.998581 6.50058 0.998581C7.95927 0.998581 9.35822 1.57804 10.3897 2.60949C11.4211 3.64094 12.0006 5.03989 12.0006 6.49858Z" fill="#707070"/>
</svg>
